<svg width="210" height="247" viewBox="0 0 210 247" fill="none" xmlns="http://www.w3.org/2000/svg">
<g clip-path="url(#clip0_1_8939)">
<rect x="0.994995" y="57.6447" width="107.369" height="222.719" rx="18.1367" transform="rotate(-31.8443 0.994995 57.6447)" fill="white"/>
<g clip-path="url(#clip1_1_8939)">
<rect x="33.186" y="95.7236" width="92.86" height="76.8997" rx="14.5094" transform="rotate(-31.8443 33.186 95.7236)" fill="#F9F9F9"/>
<path opacity="0.7" d="M67.4209 145.343L79.7464 137.688" stroke="#2FDBBC" stroke-width="87.0563" stroke-linecap="round"/>
<circle cx="63.0097" cy="129.562" r="1.81367" transform="rotate(-7.31235 63.0097 129.562)" fill="black"/>
<circle cx="77.7512" cy="124.744" r="1.81367" transform="rotate(-7.31235 77.7512 124.744)" fill="black"/>
<path d="M75.8357 142.759C77.8756 143.049 81.3521 140.961 77.8229 138.029C83.0613 134.775 76.1101 131.833 73.3424 135.202" stroke="black" stroke-width="1.45094" stroke-linecap="round" stroke-linejoin="round"/>
<path d="M116.048 127.666C118.327 126.689 119.731 125.415 120.347 124.231M113.394 122.039C119.092 119.323 121.743 121.548 120.347 124.231M104.258 144.481C115.967 152.358 110.153 129.414 108.674 124.425C107.195 119.436 104.053 110.5 108.269 109.744C111.642 109.139 112.029 114.55 112.318 118.411C112.029 114.55 112.031 108.123 114.753 108.316C118.784 108.601 117.828 114.807 117.078 117.825M115.124 119.553C116.73 117.761 121.002 114.752 123.421 117.587C124.751 119.145 124.259 120.699 123.233 121.946M120.347 124.231C121.195 123.785 122.393 122.969 123.233 121.946M123.233 121.946C127.026 129.748 129.773 142.345 127.255 150.492C124.736 158.639 117.458 162.935 115.296 163.411" stroke="black" stroke-width="1.45094" stroke-linecap="round" stroke-linejoin="round"/>
<circle cx="107.406" cy="91.4722" r="3.62734" transform="rotate(-31.8443 107.406 91.4722)" stroke="black" stroke-width="1.45094"/>
<circle cx="125.914" cy="73.1451" r="3.62734" transform="rotate(-31.8443 125.914 73.1451)" stroke="black" stroke-width="1.45094"/>
<path d="M110.222 88.4425L122.907 75.8666M105.301 88.0826L96.8154 70.2949" stroke="black" stroke-width="1.45094" stroke-linecap="round" stroke-linejoin="round"/>
<path d="M91.1619 70.8173L102.511 68.4653" stroke="black" stroke-width="1.45094" stroke-linecap="round" stroke-linejoin="round"/>
</g>
<g clip-path="url(#clip2_1_8939)">
<rect x="22.0858" y="77.8517" width="17.4113" height="17.4113" rx="8.70563" transform="rotate(-31.8443 22.0858 77.8517)" fill="#DAFAF4"/>
<rect opacity="0.7" x="26.679" y="85.247" width="17.4113" height="13.0584" rx="6.52922" transform="rotate(-31.8443 26.679 85.247)" fill="#2FDBBC"/>
<circle cx="35.0216" cy="85.6165" r="0.362735" transform="rotate(-31.8443 35.0216 85.6165)" fill="black"/>
<circle cx="38.103" cy="83.7027" r="0.362735" transform="rotate(-31.8443 38.103 83.7027)" fill="black"/>
</g>
<g clip-path="url(#clip3_1_8939)">
<rect x="94.8114" y="194.944" width="17.4113" height="17.4113" rx="8.70563" transform="rotate(-31.8443 94.8114 194.944)" fill="#FFF5EB"/>
<rect opacity="0.7" x="99.4044" y="202.339" width="17.4113" height="13.0584" rx="6.52922" transform="rotate(-31.8443 99.4044 202.339)" fill="#FDC280"/>
<circle cx="107.747" cy="202.709" r="0.362735" transform="rotate(-31.8443 107.747 202.709)" fill="black"/>
<circle cx="110.829" cy="200.795" r="0.362735" transform="rotate(-31.8443 110.829 200.795)" fill="black"/>
<circle cx="107.747" cy="202.709" r="0.94311" transform="rotate(-31.8443 107.747 202.709)" stroke="black" stroke-width="0.290188"/>
<circle cx="110.829" cy="200.795" r="0.94311" transform="rotate(-31.8443 110.829 200.795)" stroke="black" stroke-width="0.290188"/>
<path d="M108.671 202.135L109.904 201.369" stroke="black" stroke-width="0.290188" stroke-linecap="round" stroke-linejoin="round"/>
</g>
<path d="M46.9787 75.663L46.6021 75.0566L48.1551 74.092C48.4509 73.9083 48.6291 73.6781 48.6895 73.4014C48.7469 73.1198 48.699 72.8558 48.5459 72.6092C48.4418 72.4416 48.3114 72.3142 48.1548 72.227C47.9951 72.1349 47.8193 72.0938 47.6273 72.1037C47.4403 72.1106 47.2531 72.1722 47.0657 72.2886L45.4905 73.2669L45.1139 72.6605L46.5856 71.7464C46.8321 71.5933 46.987 71.4083 47.0504 71.1913C47.1156 70.9663 47.0717 70.7306 46.9186 70.4841C46.7654 70.2376 46.5727 70.0977 46.3402 70.0644C46.1047 70.0262 45.8612 70.0852 45.6098 70.2414L44.1677 71.1371L43.7911 70.5306L45.2479 69.6258C45.5832 69.4176 45.9 69.3062 46.1984 69.2916C46.4987 69.2691 46.7668 69.3212 47.0027 69.448C47.2435 69.5717 47.4374 69.7519 47.5844 69.9886C47.7558 70.2646 47.8295 70.5537 47.8052 70.8557C47.7859 71.1546 47.6676 71.4536 47.4502 71.7526L47.3716 71.494C47.7754 71.4071 48.1435 71.4279 48.476 71.5561C48.8103 71.6764 49.0785 71.8993 49.2806 72.2247C49.4491 72.4958 49.5341 72.7812 49.5357 73.0808C49.5373 73.3804 49.4537 73.6749 49.285 73.9641C49.1181 74.2454 48.8547 74.4978 48.4948 74.7214L46.9787 75.663ZM46.5128 75.9524L43.3252 70.82L44.0203 70.3883L47.208 75.5206L46.5128 75.9524ZM52.4606 72.3607C52.1746 72.5383 51.876 72.635 51.5646 72.6507C51.2552 72.6585 50.9644 72.5863 50.6923 72.4342C50.4202 72.2821 50.1892 72.0532 49.9993 71.7475L48.7316 69.7064L49.3972 69.293L50.6465 71.3046C50.766 71.4968 50.9021 71.6446 51.055 71.7477C51.2098 71.8429 51.3742 71.8877 51.5483 71.882C51.7225 71.8763 51.8958 71.8199 52.0684 71.7127C52.3297 71.5504 52.4837 71.342 52.5306 71.0875C52.5744 70.828 52.5059 70.5528 52.3253 70.2619L51.0759 68.2504L51.7415 67.837L53.0092 69.8781C53.1991 70.1838 53.3019 70.4923 53.3176 70.8036C53.3333 71.1149 53.2692 71.4076 53.125 71.6816C52.9828 71.9476 52.7613 72.1739 52.4606 72.3607ZM56.7101 69.7214C56.4439 69.8867 56.1686 69.9825 55.8843 70.0088C55.6019 70.0271 55.3353 69.9774 55.0847 69.8598C54.834 69.7422 54.6232 69.5623 54.4522 69.3201L53.7954 68.2625C53.6509 67.997 53.5831 67.7282 53.5919 67.4564C53.6025 67.1765 53.6801 66.9165 53.8248 66.6763C53.9713 66.4282 54.1752 66.223 54.4365 66.0607C54.7569 65.8616 55.0959 65.7639 55.4533 65.7673C55.8156 65.7677 56.1565 65.86 56.4759 66.0443C56.7953 66.2285 57.0621 66.4932 57.2765 66.8383C57.4908 67.1834 57.6098 67.5399 57.6334 67.9079C57.6569 68.2758 57.5886 68.6223 57.4284 68.9473C57.27 69.2643 57.0306 69.5223 56.7101 69.7214ZM56.2087 69.1617C56.4306 69.0239 56.5932 68.8511 56.6965 68.6435C56.7998 68.4358 56.8457 68.2127 56.834 67.9739C56.8194 67.7303 56.7385 67.4901 56.5915 67.2535C56.4476 67.0217 56.2697 66.8453 56.0578 66.7241C55.8459 66.6029 55.6255 66.5451 55.3966 66.5506C55.1647 66.5512 54.9403 66.6189 54.7233 66.7536C54.5015 66.8914 54.3389 67.0641 54.2356 67.2718C54.1292 67.4745 54.0858 67.6961 54.1054 67.9367C54.1251 68.1773 54.2084 68.4159 54.3553 68.6526C54.4993 68.8843 54.6722 69.0638 54.8743 69.1911C55.0782 69.3104 55.2961 69.3698 55.5281 69.3692C55.7649 69.3656 55.9918 69.2964 56.2087 69.1617ZM54.8153 70.7957L51.5358 65.5155L52.2014 65.1021L53.832 67.7274L54.2345 68.6559L54.893 69.4357L55.4809 70.3823L54.8153 70.7957ZM59.127 68.1177L56.9453 64.605L57.6108 64.1916L59.7926 67.7043L59.127 68.1177ZM56.8417 63.6957C56.7184 63.7723 56.5929 63.7956 56.465 63.7657C56.3341 63.7309 56.2303 63.6519 56.1538 63.5286C56.0803 63.4103 56.0585 63.2872 56.0884 63.1593C56.1152 63.0265 56.1902 62.9218 56.3135 62.8453C56.4367 62.7687 56.5638 62.7478 56.6948 62.7827C56.8226 62.8125 56.9233 62.8866 56.9968 63.005C57.0734 63.1282 57.0982 63.2563 57.0714 63.3891C57.0415 63.5169 56.9649 63.6192 56.8417 63.6957Z" fill="#B9B9B9"/>
<path d="M17.1976 65.9775L13.9824 60.8008L14.8328 60.2726L18.048 65.4493L17.1976 65.9775ZM16.4039 63.3961L15.9216 62.6196L18.5543 60.9844L19.0366 61.7609L16.4039 63.3961ZM15.0489 61.2145L14.5666 60.438L17.325 58.7247L17.8073 59.5012L15.0489 61.2145ZM22.8333 62.5797C22.4783 62.8002 22.1088 62.9204 21.7249 62.9402C21.3428 62.952 20.9807 62.8695 20.6385 62.6926C20.3013 62.5126 20.024 62.2476 19.8066 61.8976C19.5892 61.5475 19.4761 61.1839 19.4673 60.8068C19.4554 60.4247 19.537 60.0666 19.7121 59.7324C19.892 59.3952 20.1521 59.1209 20.4923 58.9096C20.8226 58.7045 21.161 58.6002 21.5073 58.5969C21.8586 58.5905 22.1884 58.676 22.4968 58.8534C22.81 59.0278 23.0723 59.2851 23.2836 59.6253C23.3203 59.6844 23.3537 59.7491 23.3836 59.8193C23.4155 59.8816 23.4469 59.9542 23.4781 60.0374L20.5643 61.8471L20.1509 61.1815L22.6432 59.6336L22.5053 60.0882C22.3607 59.8774 22.2055 59.721 22.0397 59.619C21.8739 59.517 21.6974 59.4695 21.5104 59.4763C21.3283 59.4801 21.1386 59.5433 20.9414 59.6657C20.7344 59.7944 20.582 59.9505 20.4842 60.1342C20.3865 60.3178 20.3463 60.517 20.3635 60.7318C20.3777 60.9416 20.4537 61.1575 20.5915 61.3793C20.7293 61.6012 20.8946 61.7684 21.0875 61.8809C21.2803 61.9934 21.4872 62.0459 21.7081 62.0386C21.9259 62.0263 22.1408 61.9543 22.3528 61.8226C22.5352 61.7093 22.6829 61.5731 22.7959 61.4141C22.9139 61.252 22.9888 61.0757 23.0208 60.8851L23.8645 61.0886C23.8175 61.3979 23.7029 61.6809 23.5207 61.9375C23.3385 62.1942 23.1094 62.4082 22.8333 62.5797ZM26.7837 60.1261C26.4287 60.3466 26.0593 60.4668 25.6753 60.4866C25.2932 60.4984 24.9311 60.4159 24.589 60.239C24.2517 60.059 23.9744 59.794 23.757 59.444C23.5396 59.0939 23.4265 58.7303 23.4177 58.3532C23.4059 57.9711 23.4874 57.613 23.6625 57.2788C23.8425 56.9416 24.1025 56.6673 24.4427 56.456C24.773 56.2509 25.1114 56.1466 25.4578 56.1433C25.8091 56.1369 26.1389 56.2224 26.4472 56.3998C26.7605 56.5742 27.0227 56.8315 27.234 57.1717C27.2708 57.2308 27.3041 57.2955 27.3341 57.3657C27.3659 57.428 27.3974 57.5007 27.4285 57.5838L24.5147 59.3935L24.1014 58.7279L26.5936 57.18L26.4557 57.6346C26.3111 57.4238 26.1559 57.2674 25.9901 57.1654C25.8243 57.0634 25.6479 57.0159 25.4608 57.0227C25.2787 57.0265 25.0891 57.0897 24.8918 57.2122C24.6848 57.3408 24.5324 57.4969 24.4347 57.6806C24.3369 57.8642 24.2967 58.0635 24.3139 58.2782C24.3281 58.488 24.4041 58.7039 24.5419 58.9257C24.6797 59.1476 24.845 59.3148 25.0379 59.4273C25.2307 59.5398 25.4376 59.5924 25.6585 59.585C25.8763 59.5727 26.0912 59.5007 26.3032 59.369C26.4856 59.2557 26.6333 59.1196 26.7464 58.9605C26.8643 58.7985 26.9393 58.6221 26.9712 58.4315L27.815 58.635C27.768 58.9443 27.6533 59.2273 27.4711 59.484C27.2889 59.7406 27.0598 59.9547 26.7837 60.1261ZM30.5714 57.7736C30.251 57.9726 29.9095 58.0719 29.5472 58.0715C29.1898 58.0681 28.8489 57.9758 28.5246 57.7946C28.2021 57.6054 27.9337 57.3383 27.7194 56.9932C27.502 56.6431 27.3815 56.2841 27.3579 55.9162C27.3362 55.5402 27.403 55.1913 27.5583 54.8694C27.7155 54.5395 27.9544 54.275 28.2748 54.0759C28.546 53.9075 28.8218 53.8182 29.1024 53.8079C29.3848 53.7896 29.6504 53.8433 29.8992 53.9688C30.148 54.0944 30.3521 54.2854 30.5113 54.5418L31.1452 55.5623C31.3044 55.8187 31.3851 56.0862 31.3874 56.3649C31.3947 56.6406 31.329 56.9034 31.1905 57.1534C31.0489 57.3984 30.8426 57.6052 30.5714 57.7736ZM30.2268 56.9218C30.429 56.7963 30.5764 56.6432 30.6692 56.4626C30.7639 56.274 30.8026 56.0723 30.7854 55.8575C30.7681 55.6428 30.6937 55.4294 30.562 55.2174C30.4303 55.0054 30.2721 54.8441 30.0872 54.7335C29.9023 54.6228 29.7059 54.5706 29.498 54.5768C29.2919 54.575 29.0878 54.6368 28.8856 54.7624C28.6884 54.8849 28.5425 55.0404 28.4478 55.229C28.355 55.4096 28.3148 55.6088 28.3271 55.8266C28.3443 56.0414 28.4188 56.2548 28.5505 56.4668C28.6821 56.6788 28.8404 56.8401 29.0253 56.9507C29.2151 57.0583 29.413 57.113 29.6191 57.1148C29.827 57.1086 30.0296 57.0443 30.2268 56.9218ZM32.4261 56.5192L31.6126 57.0244L31.0201 56.0704L30.6232 55.1179L29.9499 54.3473L28.3055 51.6998L29.119 51.1946L32.4261 56.5192Z" fill="#E4E4E4"/>
<g clip-path="url(#clip4_1_8939)">
<rect x="105.911" y="212.816" width="92.86" height="76.8997" rx="14.5094" transform="rotate(-31.8443 105.911 212.816)" fill="#F9F9F9"/>
<path opacity="0.7" d="M219.424 182.452L179.983 206.949" stroke="#FFAA4C" stroke-width="69.8814" stroke-linecap="round"/>
<path d="M176.755 197.949C176.12 199.922 172.61 202.208 170.102 202.041" stroke="black" stroke-width="1.45094" stroke-linecap="round" stroke-linejoin="round"/>
<circle cx="158.97" cy="199.931" r="1.81367" transform="rotate(-31.8443 158.97 199.931)" fill="black"/>
<circle cx="172.528" cy="191.51" r="1.81367" transform="rotate(-31.8443 172.528 191.51)" fill="black"/>
<circle cx="160.319" cy="198.666" r="5.07828" transform="rotate(-31.8443 160.319 198.666)" stroke="black" stroke-width="1.45094"/>
<circle cx="173.878" cy="190.245" r="5.07828" transform="rotate(-31.8443 173.878 190.245)" stroke="black" stroke-width="1.45094"/>
<path d="M164.825 196.294L169.755 193.232" stroke="black" stroke-width="1.45094" stroke-linecap="round" stroke-linejoin="round"/>
<path d="M124.098 224.902L123.176 224.931C121.574 224.983 120.318 226.323 120.369 227.925L120.927 245.241C120.978 246.843 122.319 248.1 123.921 248.048L141.055 247.497C142.657 247.445 143.914 246.105 143.862 244.503L143.304 227.187C143.253 225.585 141.913 224.328 140.311 224.38L135.93 224.521M124.098 224.902C123.635 221.819 123.545 215.627 126.894 215.519C130.243 215.411 131.28 221.573 131.379 224.667M124.098 224.902L127.739 224.784M131.379 224.667L127.739 224.784M131.379 224.667L135.93 224.521M127.739 224.784C127.271 221.58 127.354 215.103 131.427 214.826C135.5 214.549 136.126 221.174 135.93 224.521" stroke="black" stroke-width="1.45094" stroke-linecap="round" stroke-linejoin="round"/>
</g>
<path d="M119.704 192.755L119.328 192.149L120.881 191.184C121.176 191.001 121.355 190.77 121.415 190.494C121.472 190.212 121.425 189.948 121.271 189.702C121.167 189.534 121.037 189.407 120.88 189.319C120.721 189.227 120.545 189.186 120.353 189.196C120.166 189.203 119.979 189.265 119.791 189.381L118.216 190.359L117.839 189.753L119.311 188.839C119.558 188.686 119.712 188.501 119.776 188.284C119.841 188.059 119.797 187.823 119.644 187.576C119.491 187.33 119.298 187.19 119.066 187.157C118.83 187.119 118.587 187.178 118.335 187.334L116.893 188.229L116.517 187.623L117.973 186.718C118.309 186.51 118.625 186.399 118.924 186.384C119.224 186.361 119.492 186.414 119.728 186.54C119.969 186.664 120.163 186.844 120.31 187.081C120.481 187.357 120.555 187.646 120.531 187.948C120.511 188.247 120.393 188.546 120.176 188.845L120.097 188.586C120.501 188.499 120.869 188.52 121.201 188.648C121.536 188.769 121.804 188.992 122.006 189.317C122.175 189.588 122.26 189.874 122.261 190.173C122.263 190.473 122.179 190.767 122.01 191.056C121.844 191.338 121.58 191.59 121.22 191.814L119.704 192.755ZM119.238 193.045L116.051 187.912L116.746 187.481L119.933 192.613L119.238 193.045ZM125.186 189.453C124.9 189.631 124.601 189.727 124.29 189.743C123.981 189.751 123.69 189.679 123.418 189.527C123.146 189.374 122.915 189.146 122.725 188.84L121.457 186.799L122.123 186.385L123.372 188.397C123.491 188.589 123.628 188.737 123.78 188.84C123.935 188.935 124.1 188.98 124.274 188.974C124.448 188.969 124.621 188.912 124.794 188.805C125.055 188.643 125.209 188.434 125.256 188.18C125.3 187.92 125.231 187.645 125.051 187.354L123.801 185.343L124.467 184.929L125.735 186.97C125.925 187.276 126.027 187.585 126.043 187.896C126.059 188.207 125.995 188.5 125.851 188.774C125.708 189.04 125.487 189.266 125.186 189.453ZM129.436 186.814C129.169 186.979 128.894 187.075 128.61 187.101C128.327 187.119 128.061 187.07 127.81 186.952C127.559 186.835 127.349 186.655 127.178 186.412L126.521 185.355C126.376 185.089 126.309 184.821 126.317 184.549C126.328 184.269 126.406 184.009 126.55 183.769C126.697 183.521 126.901 183.315 127.162 183.153C127.482 182.954 127.821 182.856 128.179 182.86C128.541 182.86 128.882 182.952 129.201 183.137C129.521 183.321 129.788 183.586 130.002 183.931C130.216 184.276 130.335 184.632 130.359 185C130.382 185.368 130.314 185.715 130.154 186.04C129.995 186.357 129.756 186.615 129.436 186.814ZM128.934 186.254C129.156 186.116 129.319 185.943 129.422 185.736C129.525 185.528 129.571 185.305 129.56 185.066C129.545 184.823 129.464 184.582 129.317 184.346C129.173 184.114 128.995 183.938 128.783 183.816C128.571 183.695 128.351 183.637 128.122 183.643C127.89 183.644 127.666 183.711 127.449 183.846C127.227 183.984 127.064 184.156 126.961 184.364C126.855 184.567 126.811 184.788 126.831 185.029C126.851 185.27 126.934 185.508 127.081 185.745C127.225 185.977 127.398 186.156 127.6 186.283C127.804 186.403 128.022 186.462 128.254 186.462C128.49 186.458 128.717 186.389 128.934 186.254ZM127.541 187.888L124.261 182.608L124.927 182.194L126.557 184.82L126.96 185.748L127.618 186.528L128.206 187.475L127.541 187.888ZM133.304 184.411C133.018 184.589 132.719 184.686 132.408 184.701C132.098 184.709 131.807 184.637 131.535 184.485C131.263 184.333 131.032 184.104 130.842 183.798L129.575 181.757L130.24 181.344L131.49 183.355C131.609 183.547 131.745 183.695 131.898 183.798C132.053 183.893 132.217 183.938 132.391 183.933C132.565 183.927 132.739 183.871 132.911 183.763C133.173 183.601 133.327 183.393 133.374 183.138C133.417 182.879 133.349 182.603 133.168 182.312L131.919 180.301L132.584 179.888L133.852 181.929C134.042 182.234 134.145 182.543 134.161 182.854C134.176 183.166 134.112 183.458 133.968 183.732C133.826 183.998 133.604 184.225 133.304 184.411Z" fill="#B9B9B9"/>
<rect opacity="0.7" x="39.2499" y="44.9868" width="29.0188" height="7.25469" rx="3.62735" transform="rotate(-31.8443 39.2499 44.9868)" fill="black"/>
<path d="M81.0279 171.399L77.8402 166.267L78.5354 165.835L81.7231 170.967L81.0279 171.399ZM86.2492 168.259C85.983 168.424 85.7077 168.52 85.4234 168.546C85.141 168.564 84.8744 168.515 84.6238 168.397C84.3731 168.279 84.1623 168.099 83.9913 167.857L83.3345 166.8C83.1901 166.534 83.1222 166.265 83.131 165.994C83.1416 165.714 83.2192 165.454 83.3639 165.213C83.5104 164.965 83.7143 164.76 83.9756 164.598C84.296 164.399 84.635 164.301 84.9924 164.305C85.3548 164.305 85.6956 164.397 86.015 164.581C86.3344 164.766 86.6013 165.03 86.8156 165.375C87.03 165.721 87.1489 166.077 87.1725 166.445C87.1961 166.813 87.1277 167.159 86.9675 167.484C86.8091 167.801 86.5697 168.059 86.2492 168.259ZM85.7479 167.699C85.9697 167.561 86.1323 167.388 86.2356 167.181C86.339 166.973 86.3848 166.75 86.3732 166.511C86.3585 166.267 86.2776 166.027 86.1307 165.791C85.9867 165.559 85.8088 165.382 85.5969 165.261C85.385 165.14 85.1646 165.082 84.9358 165.088C84.7038 165.088 84.4794 165.156 84.2625 165.291C84.0406 165.429 83.878 165.601 83.7747 165.809C83.6683 166.012 83.6249 166.233 83.6446 166.474C83.6642 166.714 83.7475 166.953 83.8945 167.19C84.0384 167.421 84.2114 167.601 84.4134 167.728C84.6173 167.848 84.8352 167.907 85.0672 167.906C85.304 167.903 85.5309 167.834 85.7479 167.699ZM84.3545 169.333L81.0749 164.053L81.7405 163.639L83.3711 166.265L83.7736 167.193L84.4321 167.973L85.02 168.919L84.3545 169.333ZM90.3095 165.737C89.9644 165.951 89.6032 166.063 89.2261 166.071C88.8489 166.08 88.4933 165.997 88.1591 165.822C87.8219 165.642 87.5461 165.38 87.3317 165.034C87.1204 164.694 87.0119 164.338 87.0062 163.966C86.9974 163.589 87.0806 163.233 87.2556 162.899C87.4306 162.565 87.6907 162.29 88.0358 162.076C88.376 161.865 88.7347 161.755 89.1118 161.746C89.4908 161.729 89.8474 161.808 90.1816 161.983C90.5158 162.158 90.7885 162.416 90.9998 162.756C91.2141 163.101 91.3272 163.465 91.3391 163.847C91.3479 164.224 91.2623 164.581 91.0823 164.919C90.9073 165.253 90.6496 165.525 90.3095 165.737ZM89.9099 165.093C90.1317 164.956 90.2968 164.781 90.405 164.571C90.5133 164.36 90.5616 164.135 90.55 163.896C90.5353 163.653 90.456 163.415 90.312 163.183C90.1712 162.957 89.9939 162.787 89.7801 162.673C89.5712 162.557 89.3499 162.503 89.1161 162.512C88.8842 162.512 88.6573 162.582 88.4354 162.719C88.2136 162.857 88.0485 163.031 87.9403 163.242C87.829 163.448 87.7791 163.67 87.7908 163.909C87.8024 164.148 87.8786 164.38 88.0195 164.607C88.1634 164.839 88.3413 165.015 88.5532 165.137C88.7621 165.253 88.9849 165.309 89.2218 165.305C89.4586 165.302 89.688 165.231 89.9099 165.093ZM94.3059 163.255C94.02 163.432 93.7213 163.529 93.41 163.545C93.1005 163.552 92.8097 163.48 92.5376 163.328C92.2655 163.176 92.0346 162.947 91.8447 162.641L90.577 160.6L91.2426 160.187L92.4919 162.198C92.6113 162.391 92.7475 162.538 92.9004 162.642C93.0552 162.737 93.2196 162.781 93.3937 162.776C93.5678 162.77 93.7412 162.714 93.9137 162.607C94.175 162.444 94.3291 162.236 94.376 161.981C94.4197 161.722 94.3513 161.447 94.1706 161.156L92.9213 159.144L93.5869 158.731L94.8546 160.772C95.0444 161.078 95.1472 161.386 95.163 161.697C95.1787 162.009 95.1145 162.301 94.9704 162.575C94.8282 162.841 94.6067 163.068 94.3059 163.255ZM99.0776 162.33C98.7176 162.554 98.3558 162.686 97.9921 162.728C97.6334 162.766 97.2952 162.717 96.9775 162.579L97.1354 161.876C97.3917 161.97 97.6475 162.002 97.9029 161.974C98.1614 161.95 98.4262 161.854 98.6973 161.685C99.0572 161.462 99.281 161.189 99.3687 160.868C99.4643 160.549 99.4126 160.23 99.2136 159.909L98.6716 159.037L98.2984 158.172L97.6932 157.461L97.1191 156.537L97.7846 156.124L99.8791 159.496C100.087 159.831 100.191 160.173 100.189 160.523C100.192 160.869 100.098 161.201 99.9057 161.519C99.7185 161.833 99.4424 162.104 99.0776 162.33ZM98.0808 160.725C97.7604 160.925 97.4245 161.027 97.0732 161.034C96.7268 161.037 96.397 160.951 96.0837 160.777C95.7674 160.598 95.5052 160.341 95.2969 160.005C95.0887 159.67 94.9774 159.326 94.963 158.973C94.9456 158.615 95.0151 158.281 95.1716 157.972C95.33 157.655 95.5694 157.397 95.8899 157.198C96.166 157.026 96.4437 156.929 96.7231 156.906C97.0024 156.883 97.265 156.931 97.5107 157.052C97.7583 157.165 97.9682 157.349 98.1404 157.604L98.7191 158.536C98.8635 158.801 98.9329 159.072 98.9272 159.349C98.9234 159.618 98.8492 159.873 98.7045 160.113C98.5599 160.353 98.352 160.557 98.0808 160.725ZM97.8235 160.014C98.0405 159.879 98.2012 159.715 98.3057 159.52C98.4151 159.322 98.4622 159.112 98.4468 158.889C98.4284 158.662 98.3487 158.434 98.2079 158.208C98.067 157.981 97.8977 157.813 97.6999 157.703C97.504 157.586 97.2956 157.531 97.0747 157.538C96.8508 157.541 96.6279 157.611 96.406 157.748C96.1842 157.886 96.02 158.057 95.9137 158.259C95.8042 158.457 95.7538 158.673 95.7623 158.907C95.7728 159.132 95.8469 159.356 95.9847 159.578C96.1225 159.8 96.2918 159.968 96.4927 160.082C96.6984 160.194 96.9158 160.247 97.1446 160.241C97.3754 160.228 97.6017 160.152 97.8235 160.014ZM103.428 157.486L102.156 155.438C101.99 155.172 101.77 155.004 101.496 154.936C101.221 154.867 100.95 154.916 100.684 155.081C100.507 155.191 100.373 155.329 100.284 155.493C100.195 155.658 100.154 155.834 100.161 156.021C100.168 156.208 100.226 156.39 100.337 156.568L99.9665 156.582C99.8012 156.316 99.7133 156.043 99.7031 155.762C99.6928 155.482 99.7569 155.216 99.8954 154.966C100.031 154.711 100.232 154.501 100.498 154.336C100.764 154.171 101.035 154.084 101.311 154.077C101.591 154.067 101.857 154.131 102.107 154.269C102.357 154.408 102.567 154.615 102.739 154.891L104.094 157.073L103.428 157.486ZM100.943 159.03L97.6638 153.749L98.3294 153.336L101.609 158.616L100.943 159.03ZM105.491 156.205L102.396 151.22L103.061 150.807L106.157 155.791L105.491 156.205ZM102.821 153.836L102.444 153.229L104.84 151.741L105.217 152.348L102.821 153.836ZM109.212 153.894L107.031 150.381L107.696 149.967L109.878 153.48L109.212 153.894ZM111.586 152.419L110.268 150.297C110.106 150.035 109.897 149.881 109.643 149.835C109.39 149.78 109.143 149.827 108.901 149.977C108.739 150.078 108.615 150.203 108.529 150.352C108.444 150.501 108.4 150.661 108.398 150.833C108.396 151.005 108.448 151.178 108.555 151.35L108.199 151.387C108.034 151.121 107.946 150.854 107.937 150.586C107.933 150.316 107.998 150.063 108.133 149.829C108.265 149.59 108.456 149.393 108.708 149.237C108.954 149.084 109.21 149 109.475 148.986C109.744 148.969 109.997 149.024 110.233 149.151C110.473 149.274 110.678 149.472 110.846 149.743L112.252 152.006L111.586 152.419ZM113.96 150.945L112.642 148.822C112.48 148.561 112.271 148.407 112.017 148.36C111.764 148.305 111.519 148.351 111.283 148.498C111.12 148.599 110.994 148.726 110.903 148.877C110.818 149.026 110.774 149.187 110.772 149.359C110.77 149.531 110.822 149.703 110.929 149.876L110.469 149.977C110.316 149.697 110.243 149.421 110.252 149.149C110.263 148.869 110.338 148.61 110.477 148.373C110.614 148.131 110.806 147.934 111.052 147.781C111.309 147.621 111.572 147.533 111.841 147.516C112.111 147.499 112.366 147.552 112.606 147.676C112.852 147.797 113.061 147.995 113.232 148.271L114.633 150.527L113.96 150.945ZM116.711 149.277L112.987 146.681L113.727 146.222L116.581 148.292L116.344 148.439L115.812 144.927L116.552 144.467L117.11 149.029L116.711 149.277ZM116.601 151.344L116.318 148.579L117.11 149.029L117.34 150.885L116.601 151.344ZM120.37 147.066C120.173 147.189 119.97 147.28 119.762 147.341C119.556 147.394 119.35 147.42 119.144 147.418C118.935 147.411 118.735 147.375 118.543 147.309L118.706 146.614C118.932 146.692 119.154 146.718 119.37 146.693C119.584 146.663 119.794 146.584 120.001 146.455C120.208 146.326 120.347 146.192 120.417 146.053C120.485 145.909 120.479 145.772 120.399 145.644C120.32 145.516 120.212 145.446 120.075 145.436C119.94 145.417 119.788 145.43 119.617 145.474C119.444 145.513 119.262 145.562 119.071 145.618C118.883 145.667 118.694 145.699 118.505 145.714C118.317 145.728 118.135 145.701 117.962 145.631C117.794 145.558 117.644 145.415 117.512 145.203C117.38 144.991 117.319 144.777 117.328 144.559C117.333 144.337 117.401 144.128 117.531 143.931C117.667 143.731 117.865 143.549 118.126 143.387C118.402 143.216 118.677 143.113 118.95 143.08C119.225 143.039 119.492 143.072 119.749 143.178L119.587 143.874C119.408 143.807 119.224 143.785 119.033 143.808C118.847 143.827 118.663 143.894 118.481 144.007C118.288 144.127 118.162 144.253 118.101 144.386C118.043 144.512 118.05 144.633 118.123 144.752C118.197 144.87 118.298 144.934 118.426 144.943C118.555 144.952 118.705 144.934 118.875 144.89C119.051 144.842 119.232 144.794 119.421 144.745C119.606 144.692 119.795 144.66 119.987 144.65C120.179 144.64 120.36 144.674 120.532 144.752C120.708 144.827 120.864 144.973 120.998 145.19C121.204 145.52 121.248 145.855 121.13 146.194C121.018 146.53 120.765 146.821 120.37 147.066ZM124.037 144.789C123.687 145.006 123.322 145.123 122.943 145.14C122.561 145.152 122.203 145.07 121.869 144.895C121.534 144.72 121.259 144.458 121.041 144.108C120.827 143.763 120.713 143.403 120.699 143.029C120.69 142.652 120.773 142.3 120.946 141.974C121.121 141.64 121.378 141.367 121.719 141.156C122.044 140.954 122.376 140.85 122.714 140.845C123.058 140.837 123.379 140.92 123.68 141.096C123.985 141.268 124.24 141.52 124.445 141.85C124.476 141.899 124.507 141.955 124.539 142.017C124.568 142.075 124.598 142.145 124.629 142.228L121.663 144.07L121.319 143.515L123.929 141.894L123.819 142.26C123.672 142.023 123.506 141.85 123.321 141.739C123.133 141.623 122.935 141.569 122.727 141.575C122.516 141.576 122.302 141.644 122.085 141.779C121.858 141.92 121.689 142.093 121.578 142.299C121.467 142.505 121.419 142.725 121.436 142.961C121.452 143.197 121.536 143.435 121.686 143.677C121.839 143.923 122.023 144.11 122.238 144.236C122.45 144.357 122.679 144.413 122.926 144.403C123.169 144.388 123.41 144.307 123.646 144.16C123.843 144.038 124.002 143.892 124.122 143.721C124.246 143.548 124.325 143.356 124.358 143.144L125.058 143.314C125.013 143.616 124.899 143.895 124.717 144.151C124.539 144.405 124.313 144.617 124.037 144.789ZM126.329 143.263L123.049 137.983L123.715 137.569L126.994 142.85L126.329 143.263ZM128.471 141.932L125.963 137.895C125.801 137.633 125.717 137.371 125.71 137.109C125.701 136.841 125.76 136.589 125.887 136.353C126.019 136.114 126.218 135.912 126.484 135.747C126.686 135.621 126.883 135.547 127.073 135.524C127.264 135.501 127.462 135.518 127.668 135.575L127.498 136.275C127.391 136.245 127.288 136.238 127.188 136.253C127.084 136.262 126.976 136.302 126.862 136.373C126.65 136.504 126.523 136.668 126.482 136.865C126.445 137.059 126.494 137.264 126.629 137.481L129.136 141.519L128.471 141.932ZM125.8 139.563L125.424 138.957L128.071 137.313L128.448 137.919L125.8 139.563ZM88.2531 179.963C87.9326 180.162 87.5928 180.264 87.2335 180.268C86.8711 180.268 86.5278 180.177 86.2035 179.996C85.8841 179.812 85.6172 179.547 85.4029 179.202C85.1885 178.857 85.0696 178.5 85.046 178.132C85.0273 177.761 85.0957 177.415 85.251 177.093C85.4112 176.768 85.6541 176.504 85.9795 176.302C86.2457 176.137 86.5176 176.047 86.7951 176.031C87.0744 176.008 87.3394 176.055 87.5901 176.173C87.8377 176.286 88.0485 176.466 88.2226 176.713L88.8794 177.77C89.0208 178.031 89.0886 178.3 89.0829 178.576C89.0821 178.85 89.011 179.11 88.8694 179.355C88.7297 179.592 88.5243 179.795 88.2531 179.963ZM87.9736 179.265C88.3039 179.06 88.5013 178.784 88.5656 178.437C88.6269 178.084 88.5488 177.733 88.3314 177.383C88.1814 177.141 88.0044 176.961 87.8005 176.842C87.5984 176.714 87.383 176.654 87.1541 176.659C86.9222 176.66 86.6953 176.729 86.4734 176.867C86.2516 177.004 86.0865 177.179 85.9782 177.389C85.8749 177.597 85.8306 177.823 85.8453 178.066C85.8619 178.302 85.9421 178.536 86.086 178.767C86.233 179.004 86.41 179.184 86.617 179.309C86.8258 179.425 87.0487 179.481 87.2855 179.478C87.5224 179.474 87.7517 179.403 87.9736 179.265ZM89.3756 179.163L88.7877 178.217L88.3806 177.281L87.7267 176.508L87.1938 175.651L87.8668 175.233L90.0486 178.745L89.3756 179.163ZM93.5024 176.6L92.2301 174.552C92.0648 174.285 91.8447 174.118 91.5699 174.05C91.2951 173.981 91.0246 174.03 90.7583 174.195C90.5808 174.305 90.4476 174.443 90.3585 174.607C90.2695 174.772 90.2284 174.948 90.2352 175.135C90.2421 175.322 90.3006 175.504 90.4109 175.682L90.0408 175.696C89.8754 175.43 89.7876 175.157 89.7773 174.876C89.767 174.595 89.8312 174.33 89.9697 174.08C90.1051 173.825 90.3059 173.615 90.5722 173.45C90.8384 173.284 91.1139 173.206 91.3987 173.213C91.6885 173.218 91.9599 173.292 92.213 173.435C92.4629 173.573 92.663 173.764 92.813 174.005L94.168 176.187L93.5024 176.6ZM91.0176 178.143L88.8358 174.631L89.5014 174.217L91.6832 177.73L91.0176 178.143ZM98.2803 173.735C97.9303 173.952 97.5657 174.07 97.1867 174.086C96.8047 174.098 96.4465 174.017 96.1124 173.842C95.7782 173.667 95.5024 173.404 95.285 173.054C95.0706 172.709 94.9566 172.349 94.9429 171.975C94.9341 171.598 95.0163 171.246 95.1895 170.92C95.3645 170.586 95.6221 170.313 95.9623 170.102C96.2877 169.9 96.6196 169.796 96.958 169.791C97.3013 169.783 97.6231 169.866 97.9234 170.042C98.2287 170.214 98.4839 170.466 98.6891 170.796C98.7197 170.845 98.7509 170.901 98.7827 170.963C98.8115 171.021 98.8414 171.091 98.8726 171.174L95.9071 173.016L95.5626 172.461L98.1731 170.84L98.0623 171.206C97.9153 170.969 97.7494 170.796 97.5645 170.685C97.3766 170.569 97.1786 170.515 96.9707 170.521C96.7597 170.522 96.5457 170.59 96.3288 170.725C96.102 170.866 95.9329 171.039 95.8216 171.245C95.7103 171.451 95.6629 171.671 95.6795 171.907C95.696 172.143 95.7793 172.381 95.9294 172.623C96.0825 172.869 96.2665 173.056 96.4815 173.182C96.6934 173.303 96.9227 173.359 97.1694 173.349C97.4131 173.334 97.6532 173.253 97.8899 173.106C98.0871 172.984 98.2456 172.838 98.3654 172.668C98.4902 172.495 98.5689 172.302 98.6015 172.091L99.3014 172.261C99.2562 172.562 99.1426 172.841 98.9604 173.097C98.7831 173.351 98.5564 173.564 98.2803 173.735ZM100.572 172.209L97.2927 166.929L97.9583 166.515L101.238 171.796L100.572 172.209ZM103.885 170.254C103.535 170.472 103.17 170.589 102.791 170.606C102.409 170.617 102.051 170.536 101.717 170.361C101.382 170.186 101.107 169.923 100.889 169.573C100.675 169.228 100.561 168.868 100.547 168.494C100.538 168.117 100.621 167.766 100.794 167.439C100.969 167.105 101.226 166.832 101.567 166.621C101.892 166.419 102.224 166.315 102.562 166.31C102.906 166.302 103.227 166.386 103.528 166.561C103.833 166.734 104.088 166.985 104.293 167.315C104.324 167.365 104.355 167.42 104.387 167.483C104.416 167.54 104.446 167.61 104.477 167.693L101.511 169.535L101.167 168.981L103.777 167.359L103.667 167.725C103.52 167.489 103.354 167.315 103.169 167.204C102.981 167.089 102.783 167.034 102.575 167.04C102.364 167.041 102.15 167.109 101.933 167.244C101.706 167.385 101.537 167.558 101.426 167.764C101.315 167.97 101.267 168.191 101.284 168.426C101.3 168.662 101.384 168.901 101.534 169.142C101.687 169.389 101.871 169.575 102.086 169.701C102.298 169.822 102.527 169.878 102.774 169.868C103.017 169.854 103.257 169.773 103.494 169.626C103.691 169.503 103.85 169.357 103.97 169.187C104.094 169.014 104.173 168.821 104.206 168.61L104.906 168.78C104.86 169.081 104.747 169.36 104.565 169.617C104.387 169.87 104.161 170.083 103.885 170.254ZM107.827 167.806C107.482 168.02 107.119 168.133 106.736 168.145C106.359 168.154 106.004 168.07 105.669 167.895C105.337 167.712 105.065 167.451 104.854 167.111C104.64 166.765 104.526 166.406 104.512 166.032C104.503 165.655 104.588 165.301 104.766 164.972C104.946 164.635 105.208 164.359 105.554 164.145C105.825 163.976 106.108 163.872 106.404 163.832C106.697 163.786 106.987 163.808 107.274 163.896L107.106 164.615C106.918 164.554 106.725 164.541 106.528 164.575C106.332 164.601 106.141 164.672 105.953 164.788C105.731 164.926 105.566 165.1 105.458 165.311C105.347 165.517 105.297 165.739 105.309 165.978C105.32 166.216 105.398 166.452 105.542 166.683C105.686 166.915 105.862 167.089 106.071 167.205C106.28 167.322 106.503 167.378 106.74 167.374C106.976 167.371 107.206 167.3 107.428 167.162C107.615 167.046 107.765 166.908 107.878 166.749C107.993 166.582 108.067 166.399 108.101 166.201L108.813 166.373C108.767 166.662 108.657 166.931 108.485 167.182C108.318 167.429 108.098 167.637 107.827 167.806ZM110.291 166.173L107.195 161.188L107.861 160.775L110.957 165.759L110.291 166.173ZM107.621 163.804L107.244 163.197L109.64 161.709L110.017 162.315L107.621 163.804ZM112.474 164.817L110.292 161.304L110.958 160.891L113.14 164.404L112.474 164.817ZM111.895 162.399L111.575 162.445C111.296 161.996 111.177 161.574 111.219 161.179C111.261 160.785 111.476 160.466 111.866 160.224C112.043 160.114 112.224 160.047 112.406 160.022C112.586 159.992 112.782 160.011 112.994 160.077L112.838 160.799C112.715 160.766 112.598 160.76 112.488 160.781C112.378 160.801 112.264 160.848 112.145 160.922C111.899 161.075 111.746 161.279 111.686 161.535C111.626 161.791 111.696 162.079 111.895 162.399ZM115.45 162.969L113.268 159.456L113.934 159.043L116.115 162.555L115.45 162.969ZM113.164 158.547C113.041 158.623 112.916 158.647 112.788 158.617C112.657 158.582 112.553 158.503 112.476 158.38C112.403 158.261 112.381 158.138 112.411 158.01C112.438 157.877 112.513 157.773 112.636 157.696C112.759 157.62 112.887 157.599 113.017 157.634C113.145 157.664 113.246 157.738 113.32 157.856C113.396 157.979 113.421 158.107 113.394 158.24C113.364 158.368 113.288 158.47 113.164 158.547ZM118.747 161.023C118.402 161.238 118.038 161.351 117.656 161.363C117.279 161.371 116.923 161.288 116.589 161.113C116.257 160.93 115.985 160.669 115.774 160.328C115.559 159.983 115.445 159.624 115.432 159.25C115.423 158.873 115.508 158.519 115.686 158.19C115.866 157.853 116.128 157.577 116.473 157.363C116.744 157.194 117.028 157.09 117.324 157.049C117.617 157.004 117.907 157.026 118.194 157.114L118.026 157.833C117.838 157.772 117.645 157.759 117.447 157.793C117.252 157.819 117.06 157.89 116.873 158.006C116.651 158.144 116.486 158.318 116.378 158.529C116.266 158.735 116.217 158.957 116.228 159.196C116.24 159.434 116.318 159.67 116.461 159.901C116.605 160.133 116.782 160.307 116.991 160.423C117.199 160.539 117.422 160.596 117.659 160.592C117.896 160.588 118.125 160.518 118.347 160.38C118.535 160.264 118.685 160.126 118.798 159.967C118.913 159.8 118.987 159.617 119.021 159.418L119.733 159.591C119.686 159.88 119.577 160.149 119.405 160.4C119.237 160.647 119.018 160.855 118.747 161.023ZM123.415 158.124C123.218 158.246 123.015 158.338 122.807 158.399C122.601 158.452 122.395 158.477 122.189 158.476C121.98 158.469 121.78 158.433 121.588 158.367L121.751 157.672C121.977 157.75 122.198 157.776 122.415 157.751C122.629 157.721 122.839 157.641 123.046 157.513C123.253 157.384 123.392 157.25 123.462 157.111C123.53 156.966 123.524 156.83 123.444 156.702C123.365 156.574 123.256 156.504 123.12 156.493C122.985 156.475 122.833 156.487 122.662 156.532C122.489 156.571 122.307 156.619 122.116 156.676C121.928 156.725 121.739 156.756 121.55 156.771C121.362 156.786 121.18 156.759 121.007 156.689C120.839 156.616 120.689 156.473 120.557 156.261C120.425 156.049 120.364 155.834 120.372 155.617C120.378 155.395 120.446 155.186 120.576 154.988C120.712 154.788 120.91 154.607 121.171 154.445C121.447 154.273 121.722 154.171 121.995 154.138C122.27 154.097 122.537 154.13 122.794 154.236L122.632 154.932C122.453 154.865 122.269 154.843 122.078 154.865C121.892 154.885 121.708 154.952 121.526 155.065C121.333 155.184 121.207 155.311 121.146 155.444C121.087 155.569 121.095 155.691 121.168 155.81C121.242 155.928 121.343 155.992 121.471 156.001C121.6 156.01 121.749 155.992 121.92 155.947C122.095 155.9 122.277 155.852 122.466 155.803C122.651 155.749 122.84 155.718 123.032 155.708C123.224 155.698 123.405 155.732 123.577 155.81C123.753 155.885 123.909 156.031 124.043 156.248C124.249 156.578 124.293 156.913 124.175 157.252C124.063 157.588 123.81 157.879 123.415 158.124ZM127.059 155.861C126.714 156.075 126.351 156.188 125.969 156.2C125.591 156.209 125.236 156.125 124.902 155.95C124.569 155.767 124.298 155.506 124.086 155.166C123.872 154.82 123.758 154.461 123.744 154.087C123.735 153.71 123.82 153.356 123.998 153.027C124.178 152.69 124.441 152.414 124.786 152.2C125.057 152.031 125.34 151.927 125.637 151.887C125.929 151.841 126.219 151.863 126.507 151.951L126.338 152.67C126.15 152.609 125.957 152.596 125.76 152.63C125.564 152.656 125.373 152.727 125.185 152.843C124.963 152.981 124.798 153.155 124.69 153.366C124.579 153.572 124.529 153.794 124.541 154.033C124.552 154.271 124.63 154.507 124.774 154.738C124.918 154.97 125.094 155.144 125.303 155.26C125.512 155.377 125.735 155.433 125.972 155.429C126.209 155.426 126.438 155.355 126.66 155.217C126.847 155.101 126.997 154.963 127.11 154.804C127.225 154.637 127.3 154.454 127.333 154.256L128.045 154.428C127.999 154.717 127.89 154.986 127.717 155.237C127.55 155.484 127.331 155.692 127.059 155.861ZM130.605 153.658C130.26 153.872 129.899 153.984 129.522 153.993C129.145 154.002 128.789 153.918 128.455 153.743C128.118 153.563 127.842 153.301 127.628 152.956C127.416 152.616 127.308 152.259 127.302 151.887C127.293 151.51 127.376 151.154 127.551 150.82C127.727 150.486 127.987 150.212 128.332 149.997C128.672 149.786 129.031 149.676 129.408 149.667C129.787 149.651 130.143 149.73 130.477 149.905C130.812 150.08 131.084 150.337 131.296 150.678C131.51 151.023 131.623 151.386 131.635 151.768C131.644 152.145 131.558 152.503 131.378 152.84C131.203 153.174 130.946 153.447 130.605 153.658ZM130.206 153.015C130.428 152.877 130.593 152.703 130.701 152.492C130.809 152.281 130.857 152.057 130.846 151.818C130.831 151.574 130.752 151.336 130.608 151.105C130.467 150.878 130.29 150.708 130.076 150.595C129.867 150.479 129.646 150.425 129.412 150.433C129.18 150.434 128.953 150.503 128.731 150.641C128.509 150.779 128.344 150.953 128.236 151.164C128.125 151.369 128.075 151.592 128.087 151.83C128.098 152.069 128.175 152.302 128.315 152.529C128.459 152.76 128.637 152.937 128.849 153.058C129.058 153.174 129.281 153.231 129.518 153.227C129.755 153.223 129.984 153.153 130.206 153.015ZM134.794 151.056C134.449 151.271 134.088 151.382 133.711 151.391C133.334 151.4 132.978 151.317 132.644 151.142C132.306 150.962 132.031 150.699 131.816 150.354C131.605 150.014 131.497 149.658 131.491 149.286C131.482 148.908 131.565 148.553 131.74 148.219C131.915 147.884 132.175 147.61 132.52 147.396C132.861 147.185 133.219 147.075 133.596 147.066C133.975 147.049 134.332 147.128 134.666 147.303C135 147.478 135.273 147.736 135.484 148.076C135.699 148.421 135.812 148.785 135.824 149.167C135.832 149.544 135.747 149.901 135.567 150.238C135.392 150.572 135.134 150.845 134.794 151.056ZM134.394 150.413C134.616 150.275 134.781 150.101 134.89 149.89C134.998 149.68 135.046 149.455 135.035 149.216C135.02 148.973 134.941 148.735 134.797 148.503C134.656 148.276 134.478 148.106 134.265 147.993C134.056 147.877 133.835 147.823 133.601 147.832C133.369 147.832 133.142 147.901 132.92 148.039C132.698 148.177 132.533 148.351 132.425 148.562C132.314 148.768 132.264 148.99 132.275 149.229C132.287 149.467 132.363 149.7 132.504 149.927C132.648 150.159 132.826 150.335 133.038 150.456C133.247 150.573 133.47 150.629 133.706 150.625C133.943 150.622 134.173 150.551 134.394 150.413ZM137.764 149.11L134.668 144.125L135.333 143.712L138.429 148.696L137.764 149.11ZM135.093 146.741L134.717 146.134L137.113 144.646L137.489 145.252L135.093 146.741ZM141.511 146.885C141.161 147.102 140.796 147.219 140.417 147.236C140.035 147.248 139.677 147.166 139.343 146.991C139.009 146.816 138.733 146.554 138.516 146.203C138.301 145.858 138.187 145.499 138.174 145.125C138.165 144.748 138.247 144.396 138.42 144.07C138.595 143.736 138.853 143.463 139.193 143.252C139.518 143.049 139.85 142.946 140.189 142.941C140.532 142.932 140.854 143.016 141.154 143.192C141.459 143.364 141.715 143.615 141.92 143.946C141.95 143.995 141.982 144.051 142.013 144.113C142.042 144.17 142.072 144.241 142.103 144.324L139.138 146.166L138.793 145.611L141.404 143.99L141.293 144.356C141.146 144.119 140.98 143.945 140.795 143.835C140.607 143.719 140.409 143.664 140.201 143.671C139.99 143.672 139.776 143.74 139.559 143.875C139.333 144.015 139.164 144.189 139.052 144.394C138.941 144.6 138.894 144.821 138.91 145.057C138.927 145.292 139.01 145.531 139.16 145.772C139.313 146.019 139.497 146.205 139.712 146.331C139.924 146.453 140.153 146.508 140.4 146.499C140.644 146.484 140.884 146.403 141.121 146.256C141.318 146.134 141.476 145.987 141.596 145.817C141.721 145.644 141.8 145.452 141.832 145.24L142.532 145.41C142.487 145.711 142.373 145.99 142.191 146.247C142.014 146.501 141.787 146.713 141.511 146.885ZM143.803 145.359L141.621 141.846L142.287 141.432L144.469 144.945L143.803 145.359ZM143.224 142.941L142.904 142.986C142.625 142.538 142.506 142.116 142.548 141.721C142.59 141.326 142.805 141.008 143.195 140.766C143.372 140.656 143.553 140.588 143.735 140.564C143.915 140.534 144.111 140.552 144.323 140.619L144.167 141.341C144.044 141.308 143.927 141.302 143.817 141.322C143.707 141.343 143.593 141.39 143.474 141.463C143.228 141.617 143.075 141.821 143.015 142.077C142.955 142.333 143.025 142.621 143.224 142.941Z" fill="#B9B9B9"/>
<path d="M86.4697 16.5128L89.5319 21.443" stroke="#E4E4E4" stroke-width="1.0882" stroke-linecap="round" stroke-linejoin="round"/>
<path d="M85.5356 20.509L90.4658 17.4469" stroke="#E4E4E4" stroke-width="1.0882" stroke-linecap="round" stroke-linejoin="round"/>
</g>
<defs>
<clipPath id="clip0_1_8939">
<rect x="0.994995" y="57.6447" width="107.369" height="222.719" rx="18.1367" transform="rotate(-31.8443 0.994995 57.6447)" fill="white"/>
</clipPath>
<clipPath id="clip1_1_8939">
<rect x="33.186" y="95.7236" width="92.86" height="76.8997" rx="14.5094" transform="rotate(-31.8443 33.186 95.7236)" fill="white"/>
</clipPath>
<clipPath id="clip2_1_8939">
<rect x="22.0858" y="77.8517" width="17.4113" height="17.4113" rx="8.70563" transform="rotate(-31.8443 22.0858 77.8517)" fill="white"/>
</clipPath>
<clipPath id="clip3_1_8939">
<rect x="94.8114" y="194.944" width="17.4113" height="17.4113" rx="8.70563" transform="rotate(-31.8443 94.8114 194.944)" fill="white"/>
</clipPath>
<clipPath id="clip4_1_8939">
<rect x="105.911" y="212.816" width="92.86" height="76.8997" rx="14.5094" transform="rotate(-31.8443 105.911 212.816)" fill="white"/>
</clipPath>
</defs>
</svg>
