<svg width="25" height="25" viewBox="0 0 25 25" fill="none" xmlns="http://www.w3.org/2000/svg">
<g id="tabler-icon-star-filled">
<g id="StarFour">
<path id="Vector" d="M23.4961 12.5C23.4984 12.8204 23.4009 13.1336 23.2172 13.3961C23.0334 13.6586 22.7725 13.8574 22.4707 13.9648L16.2304 16.2305L13.9648 22.4707C13.8538 22.7697 13.654 23.0276 13.3921 23.2097C13.1303 23.3919 12.8189 23.4895 12.5 23.4895C12.181 23.4895 11.8697 23.3919 11.6078 23.2097C11.346 23.0276 11.1461 22.7697 11.0351 22.4707L8.76951 16.2305L2.52927 13.9648C2.23024 13.8539 1.97235 13.654 1.79023 13.3921C1.60811 13.1303 1.5105 12.819 1.5105 12.5C1.5105 12.181 1.60811 11.8697 1.79023 11.6079C1.97235 11.346 2.23024 11.1462 2.52927 11.0352L8.76951 8.76954L11.0351 2.5293C11.1461 2.23027 11.346 1.97238 11.6078 1.79026C11.8697 1.60814 12.181 1.51053 12.5 1.51053C12.8189 1.51053 13.1303 1.60814 13.3921 1.79026C13.654 1.97238 13.8538 2.23027 13.9648 2.5293L16.2304 8.76954L22.4707 11.0352C22.7725 11.1426 23.0334 11.3414 23.2172 11.6039C23.4009 11.8664 23.4984 12.1796 23.4961 12.5Z" fill="#FFAA4C"/>
</g>
</g>
</svg>
